<!DOCTYPE svg PUBLIC "-//W3C//DTD SVG 1.1//EN" "http://www.w3.org/Graphics/SVG/1.1/DTD/svg11.dtd">
<!-- Uploaded to: SVG Repo, www.svgrepo.com, Transformed by: SVG Repo Mixer Tools -->
<svg version="1.1" id="Layer_1" xmlns="http://www.w3.org/2000/svg" xmlns:xlink="http://www.w3.org/1999/xlink" viewBox="-151.53 -151.53 808.16 808.16" xml:space="preserve" width="100px" height="100px" fill="#000000">
<g id="SVGRepo_bgCarrier" stroke-width="0"/>
<g id="SVGRepo_tracerCarrier" stroke-linecap="round" stroke-linejoin="round"/>
<g id="SVGRepo_iconCarrier"> <g transform="translate(1 1)"> <rect x="242.627" y="482.164" style="fill:#80D6FA;" width="204.8" height="17.067"/> <path style="fill:#ECF4F7;" d="M345.027,311.497c-18.773,0-34.133,15.36-34.133,34.133s15.36,34.133,34.133,34.133 s34.133-15.36,34.133-34.133S363.8,311.497,345.027,311.497 M345.027,106.697c0,0,68.267,162.133,153.6,247.467 C430.36,371.23,430.36,448.03,430.36,448.03v34.133H259.693V448.03c0,0,0-85.333-68.267-102.4 C276.76,260.297,345.027,106.697,345.027,106.697"/> <g> <polygon style="fill:#FFE079;" points="71.96,345.63 37.827,379.764 3.693,345.63 37.827,311.497 "/> <polygon style="fill:#FFE079;" points="379.16,38.43 345.027,72.563 310.893,38.43 345.027,4.297 "/> </g> <path style="fill:#80D6FA;" d="M20.76,21.363c9.387,0,17.067,7.68,17.067,17.067s-7.68,17.067-17.067,17.067 S3.693,47.817,3.693,38.43S11.373,21.363,20.76,21.363"/> </g> <path style="fill:#51565F;" d="M448.427,504.497c-2.56,0-4.267-1.707-4.267-4.267v-12.8H247.893v12.8 c0,2.56-1.707,4.267-4.267,4.267s-4.267-1.707-4.267-4.267v-17.067c0-2.56,1.707-4.267,4.267-4.267h204.8 c2.56,0,4.267,1.707,4.267,4.267v17.067C452.693,502.79,450.987,504.497,448.427,504.497z M260.693,453.297 c-2.56,0-4.267-1.707-4.267-4.267c0-0.853-0.853-81.92-64.853-98.133c-1.707,0-2.56-1.707-3.413-3.413c0-1.707,0-3.413,0.853-4.267 c82.773-82.773,151.04-232.96,152.747-237.227c0,0,0-0.853,0.853-0.853c0,0,0,0,0.853-0.853c1.707-1.707,4.267-1.707,5.973,0l0,0 l0,0c0,0,0,0,0.853,0.853l0,0l0,0l0.853,0.853c1.707,4.267,69.973,162.987,152.747,245.76c0.853,0.853,1.707,2.56,0.853,4.267 c0,1.707-1.707,2.56-3.413,3.413c-64,16.213-64.853,87.04-64.853,89.6c0,2.56-1.707,4.267-4.267,4.267l0,0 c-2.56,0-4.267-1.707-4.267-4.267c0-0.853,0.853-75.093,64.853-95.573c-65.707-68.267-121.173-180.907-141.653-225.28v180.907 c18.773,2.56,34.133,18.773,34.133,38.4c0,21.333-17.067,38.4-38.4,38.4c-21.333,0-38.4-17.067-38.4-38.4 c0-19.627,15.36-35.84,34.133-38.4v-181.76c-20.48,41.813-75.947,149.333-141.653,217.6c64,21.333,64.853,103.253,64.853,104.107 C264.96,451.59,263.253,453.297,260.693,453.297L260.693,453.297z M346.027,316.764c-16.213,0-29.867,13.653-29.867,29.867 s13.653,29.867,29.867,29.867s29.867-13.653,29.867-29.867S362.24,316.764,346.027,316.764z M38.827,385.03 c-0.853,0-2.56,0-3.413-0.853L1.28,350.043c-1.707-1.707-1.707-4.267,0-5.973l33.28-33.28 c0.853-128.853,89.6-236.373,209.067-267.093H43.093c-1.707,9.387-10.24,17.067-20.48,17.067c-11.947,0-21.333-9.387-21.333-21.333 s9.387-21.333,21.333-21.333c10.24,0,18.773,7.68,20.48,17.067h267.093l33.28-33.28c1.707-1.707,4.267-1.707,5.973,0l34.133,34.133 c1.707,1.707,1.707,4.267,0,5.973L349.44,76.124c-1.707,1.707-4.267,1.707-5.973,0l-33.28-33.28 c-146.773,0.853-266.24,120.32-267.093,267.093l33.28,33.28c1.707,1.707,1.707,4.267,0,5.973L42.24,383.324 C41.387,385.03,39.68,385.03,38.827,385.03z M10.667,346.63l28.16,28.16l28.16-28.16l-28.16-28.16L10.667,346.63z M317.867,39.43 l28.16,28.16l28.16-28.16l-28.16-28.16L317.867,39.43z M21.76,26.63c-6.827,0-12.8,5.973-12.8,12.8s5.973,12.8,12.8,12.8 s12.8-5.973,12.8-12.8S28.587,26.63,21.76,26.63z"/> </g>
</svg>